<?xml version="1.0" encoding="utf-8"?>
<!-- Generator: Adobe Illustrator 27.0.0, SVG Export Plug-In . SVG Version: 6.00 Build 0)  -->
<svg version="1.1" id="图层_1" xmlns="http://www.w3.org/2000/svg" xmlns:xlink="http://www.w3.org/1999/xlink" x="0px" y="0px"
	 viewBox="0 0 30 30" style="enable-background:new 0 0 30 30;" xml:space="preserve">
<style type="text/css">
	.st0{fill:#FFFFFF;}
</style>
<g>
	<path class="st0" d="M27.73,1H2.27C1.62,1,1.09,1.53,1.09,2.18v25.64c0,0.65,0.53,1.18,1.18,1.18h25.46c0.65,0,1.18-0.53,1.18-1.18
		V2.18C28.91,1.53,28.38,1,27.73,1z M3.45,26.64V3.36h23.1v23.29H3.45V26.64z"/>
	<path class="st0" d="M21.84,6.33H8.16c-0.65,0-1.18,0.53-1.18,1.18s0.53,1.18,1.18,1.18h13.68c0.65,0,1.18-0.53,1.18-1.18
		S22.49,6.33,21.84,6.33z"/>
	<path class="st0" d="M18.49,14.67h-1.92l0.81-2.03c0.05-0.12,0.07-0.24,0.07-0.37c0-0.55-0.45-1.01-1.01-1.01h-3.41
		c-0.4,0-0.76,0.23-0.92,0.6l-2.72,6.13C9.33,18.12,9.3,18.26,9.3,18.4c0,0.55,0.45,1,1,1h2.27l-0.54,4.32
		c0,0.04-0.01,0.08-0.01,0.12c0,0.55,0.45,1,1,1c0.34,0,0.65-0.17,0.84-0.45l5.45-8.17c0.11-0.16,0.17-0.36,0.17-0.55
		C19.49,15.12,19.04,14.67,18.49,14.67z M14.43,17.69c-0.19-0.19-0.44-0.29-0.71-0.29l0,0h-1.86l1.83-4.12h1.27l-0.81,2.03
		c-0.05,0.12-0.07,0.24-0.07,0.37c0,0.27,0.1,0.52,0.29,0.71s0.44,0.29,0.71,0.29h1.53l-2.05,3.07l0.15-1.23
		c0-0.04,0.01-0.08,0.01-0.12C14.72,18.13,14.62,17.88,14.43,17.69z"/>
</g>
</svg>
