<?xml version="1.0" encoding="utf-8"?>
<!-- Generator: Adobe Illustrator 27.0.0, SVG Export Plug-In . SVG Version: 6.00 Build 0)  -->
<svg version="1.1" id="图层_1" xmlns="http://www.w3.org/2000/svg" xmlns:xlink="http://www.w3.org/1999/xlink" x="0px" y="0px"
	 viewBox="0 0 30 30" style="enable-background:new 0 0 30 30;" xml:space="preserve">
<style type="text/css">
	.st0{fill:#FFFFFF;}
</style>
<g>
	<path class="st0" d="M26.35,23.33H3.23c-0.16,0-0.29,0.13-0.29,0.29v1.14c0,0.16,0.13,0.29,0.29,0.29h23.13
		c0.16,0,0.29-0.13,0.29-0.29v-1.14C26.64,23.46,26.51,23.33,26.35,23.33z"/>
	<path class="st0" d="M24.59,26.82H4.99c-0.15,0-0.26,0.12-0.26,0.26v1.19c0,0.15,0.12,0.26,0.26,0.26H24.6
		c0.15,0,0.26-0.12,0.26-0.26v-1.19C24.86,26.94,24.74,26.82,24.59,26.82z"/>
	<path class="st0" d="M28.74,18.69L19.35,2.44C19,1.83,18.37,1.47,17.67,1.47s-1.33,0.36-1.68,0.97l-4.27,7.4l-1.15-2
		c-0.58-1.01-2.22-1.01-2.8,0L1.22,19.18c-0.29,0.51-0.29,1.11,0,1.62s0.82,0.81,1.4,0.81h13.09l0,0h11.34
		c0.7,0,1.33-0.36,1.68-0.97C29.09,20.02,29.09,19.3,28.74,18.69z M2.79,19.89L9.16,8.85l6.37,11.04H2.79z M27.25,19.77
		c-0.03,0.05-0.09,0.11-0.2,0.11h-9.74c-0.02-0.24-0.08-0.49-0.21-0.71l-4.4-7.63l4.77-8.25c0.11-0.19,0.29-0.19,0.4,0l9.38,16.25
		C27.31,19.64,27.28,19.72,27.25,19.77z"/>
</g>
</svg>
