<?xml version="1.0" encoding="utf-8"?>
<!-- Generator: Adobe Illustrator 27.0.0, SVG Export Plug-In . SVG Version: 6.00 Build 0)  -->
<svg version="1.1" id="图层_1" xmlns="http://www.w3.org/2000/svg" xmlns:xlink="http://www.w3.org/1999/xlink" x="0px" y="0px"
	 viewBox="0 0 30 30" style="enable-background:new 0 0 30 30;" xml:space="preserve">
<style type="text/css">
	.st0{fill:#FFFFFF;}
</style>
<g>
	<path class="st0" d="M7.22,11.5c0.64,0,1.17-0.53,1.17-1.17S7.87,9.16,7.22,9.16c-0.64,0-1.17,0.52-1.17,1.17
		C6.06,10.98,6.58,11.5,7.22,11.5z"/>
	<path class="st0" d="M7.22,16.17c0.64,0,1.17-0.52,1.17-1.17c0-0.64-0.52-1.17-1.17-1.17c-0.64,0-1.17,0.52-1.17,1.17
		C6.06,15.64,6.58,16.17,7.22,16.17z"/>
	<path class="st0" d="M7.22,20.83c0.64,0,1.17-0.52,1.17-1.17c0-0.64-0.52-1.17-1.17-1.17c-0.64,0-1.17,0.52-1.17,1.17
		C6.06,20.31,6.58,20.83,7.22,20.83z"/>
	<path class="st0" d="M27.44,11.5h-4.1l-0.86-9.44C22.43,1.46,21.93,1,21.33,1h-3.7c-0.61,0-1.11,0.46-1.17,1.06L15.6,11.5h-2.54
		V5.67c0-0.64-0.52-1.17-1.17-1.17H2.56c-0.64,0-1.17,0.53-1.17,1.17v2.84v2.99v2.33v12.83v1.23c0,0.61,0.49,1.1,1.1,1.1h24.95
		c0.64,0,1.17-0.52,1.17-1.17V12.67C28.61,12.03,28.08,11.5,27.44,11.5z M10.72,26.67h-7v-14V6.83h7V26.67z M18.69,3.33h1.57
		l0.75,8.17h-3.06L18.69,3.33z M21.22,26.67h-3.5v-5.83h3.5V26.67z M26.28,26.67h-2.72v-7c0-0.64-0.52-1.17-1.17-1.17h-5.83
		c-0.64,0-1.17,0.52-1.17,1.17v7h-2.33V13.83h13.22C26.28,13.83,26.28,26.67,26.28,26.67z"/>
</g>
</svg>
