<?xml version="1.0" encoding="utf-8"?>
<!-- Generator: Adobe Illustrator 27.0.0, SVG Export Plug-In . SVG Version: 6.00 Build 0)  -->
<svg version="1.1" id="图层_1" xmlns="http://www.w3.org/2000/svg" xmlns:xlink="http://www.w3.org/1999/xlink" x="0px" y="0px"
	 viewBox="0 0 30 30" style="enable-background:new 0 0 30 30;" xml:space="preserve">
<style type="text/css">
	.st0{fill:#FFFFFF;}
</style>
<path class="st0" d="M27.61,15.18c-0.72-0.01-1.33,0.53-1.42,1.24c-0.64,5.05-4.71,9.09-9.76,9.69c-0.71,0.08-1.25,0.69-1.25,1.41
	c0,0.84,0.73,1.49,1.57,1.39c1.31-0.15,2.6-0.49,3.82-1.01c1.65-0.7,3.13-1.69,4.4-2.96c1.27-1.26,2.28-2.74,2.99-4.38
	c0.53-1.22,0.87-2.5,1.04-3.81C29.09,15.93,28.44,15.19,27.61,15.18L27.61,15.18z M21.81,15.02c0-1.79-0.7-3.47-1.96-4.74
	c-1.26-1.26-2.95-1.96-4.74-1.96s-3.47,0.7-4.74,1.96C9.1,11.55,8.4,13.23,8.4,15.02s0.7,3.47,1.96,4.74
	c1.26,1.26,2.95,1.96,4.74,1.96s3.47-0.7,4.74-1.96C21.11,18.5,21.81,16.81,21.81,15.02z M14.98,18.9
	c-2.04-0.07-3.69-1.72-3.75-3.75c-0.07-2.24,1.77-4.08,4.01-4.01c2.04,0.07,3.69,1.72,3.75,3.75C19.06,17.14,17.22,18.98,14.98,18.9
	z M15.18,5.95c0.78,0,1.41-0.63,1.41-1.41V2.48c0-0.78-0.63-1.41-1.41-1.41s-1.41,0.63-1.41,1.41v2.05
	C13.77,5.31,14.4,5.95,15.18,5.95z M6.6,8.67c0.55,0.55,1.44,0.55,1.99,0s0.55-1.44,0-1.99L7.14,5.23c-0.55-0.55-1.44-0.55-1.99,0
	s-0.55,1.44,0,1.99L6.6,8.67z M5.87,15.26c0-0.78-0.63-1.41-1.41-1.41H2.41C1.63,13.85,1,14.48,1,15.26s0.63,1.41,1.41,1.41h2.05
	C5.24,16.66,5.87,16.03,5.87,15.26z M8.6,21.84c-0.55-0.55-1.44-0.55-1.99,0l-1.45,1.45c-0.55,0.55-0.55,1.44,0,1.99
	s1.44,0.55,1.99,0l1.45-1.45C9.15,23.28,9.15,22.39,8.6,21.84z M21.76,8.67c0.55,0.55,1.44,0.55,1.99,0l1.45-1.45
	c0.55-0.55,0.55-1.44,0-1.99s-1.44-0.55-1.99,0l-1.45,1.45C21.21,7.23,21.21,8.12,21.76,8.67z"/>
</svg>
