<?xml version="1.0" encoding="utf-8"?>
<!-- Generator: Adobe Illustrator 27.0.0, SVG Export Plug-In . SVG Version: 6.00 Build 0)  -->
<svg version="1.1" id="图层_1" xmlns="http://www.w3.org/2000/svg" xmlns:xlink="http://www.w3.org/1999/xlink" x="0px" y="0px"
	 viewBox="0 0 30 30" style="enable-background:new 0 0 30 30;" xml:space="preserve">
<style type="text/css">
	.st0{fill:#FFFFFF;}
</style>
<g>
	<circle class="st0" cx="7.98" cy="6.99" r="1.37"/>
	<path class="st0" d="M7.98,10.86c-0.76,0-1.37,0.61-1.37,1.37s0.61,1.37,1.37,1.37s1.37-0.61,1.37-1.37
		C9.35,11.47,8.74,10.86,7.98,10.86z"/>
	<circle class="st0" cx="7.98" cy="17.47" r="1.37"/>
	<path class="st0" d="M11.43,1h-6.9C2.99,1,1.74,2.25,1.74,3.78v18.98c0,1.54,1.25,2.78,2.79,2.78H5.2v2.39
		C5.2,28.52,5.67,29,6.26,29h3.45c0.58,0,1.06-0.48,1.06-1.06v-2.39h0.66c1.54,0,2.79-1.25,2.79-2.78V3.78
		C14.22,2.25,12.97,1,11.43,1z M8.65,26.88H7.32v-1.33h1.33C8.65,25.55,8.65,26.88,8.65,26.88z M12.1,22.76
		c0,0.37-0.3,0.67-0.67,0.67h-6.9c-0.37,0-0.67-0.3-0.67-0.67V3.78c0-0.37,0.3-0.67,0.67-0.67h6.9c0.37,0,0.67,0.3,0.67,0.67V22.76z
		"/>
	<path class="st0" d="M18.01,1h-1.1c-0.35,0-0.63,0.28-0.63,0.63v26.74c0,0.35,0.28,0.63,0.63,0.63h1.1c0.35,0,0.63-0.28,0.63-0.63
		V1.63C18.65,1.28,18.36,1,18.01,1z"/>
	<path class="st0" d="M27.62,1h-1.1c-0.35,0-0.63,0.28-0.63,0.63v26.74c0,0.35,0.28,0.63,0.63,0.63h1.1c0.35,0,0.63-0.28,0.63-0.63
		V1.63C28.26,1.28,27.97,1,27.62,1z"/>
	<path class="st0" d="M23.16,3.12h-1.78c-0.16,0-0.29,0.13-0.29,0.29v5.41c0,0.16,0.13,0.29,0.29,0.29h1.78
		c0.16,0,0.29-0.13,0.29-0.29V3.41C23.45,3.25,23.32,3.12,23.16,3.12z"/>
	<path class="st0" d="M23.16,16.89h-1.78c-0.16,0-0.29,0.13-0.29,0.29v5.41c0,0.16,0.13,0.29,0.29,0.29h1.78
		c0.16,0,0.29-0.13,0.29-0.29v-5.41C23.45,17.02,23.32,16.89,23.16,16.89z"/>
</g>
</svg>
