<?xml version="1.0" encoding="utf-8"?>
<!-- Generator: Adobe Illustrator 27.0.0, SVG Export Plug-In . SVG Version: 6.00 Build 0)  -->
<svg version="1.1" id="图层_1" xmlns="http://www.w3.org/2000/svg" xmlns:xlink="http://www.w3.org/1999/xlink" x="0px" y="0px"
	 viewBox="0 0 30 30" style="enable-background:new 0 0 30 30;" xml:space="preserve">
<style type="text/css">
	.st0{fill:#FFFFFF;}
</style>
<g>
	<path class="st0" d="M27.7,2.91h-7.92c-0.05-0.67-0.61-1.2-1.29-1.2h-3.36c-0.72,0-1.3,0.58-1.3,1.3v1.27
		c-1.01,0.2-2.67,0.76-4.31,2.32c-3.15,3-4.84,8.25-5.04,15.6c-0.67-0.06-1.37-0.31-2.09-0.74c-0.21-0.12-0.46-0.16-0.7-0.1
		s-0.44,0.21-0.56,0.42c-0.26,0.44-0.11,1,0.32,1.26c1.13,0.68,2.25,1.02,3.35,1.02c0.01,0,0.01,0,0.01,0
		c0.23,0,0.46-0.02,0.69-0.05c0.66-0.09,1.06-0.28,1.39-0.43c0.27-0.13,0.49-0.23,0.92-0.28c0.67-0.08,1.04,0.06,1.55,0.26
		c0.54,0.21,1.21,0.47,2.27,0.48c0.97-0.02,1.52-0.22,2-0.43c0.36-0.16,0.67-0.3,1.37-0.32c0.74-0.02,1.09,0.11,1.54,0.28
		c0.47,0.18,1.12,0.41,2.22,0.4c1-0.02,1.56-0.23,2.01-0.4c0.4-0.15,0.75-0.28,1.55-0.26c0.66,0.02,1.42,0.15,2.69,0.37
		c0.62,0.1,1.14,0.2,1.5,0.28c0.49,0.1,0.97-0.23,1.07-0.71c0.05-0.24,0-0.49-0.13-0.69c-0.13-0.21-0.34-0.35-0.58-0.4
		c-0.38-0.08-0.91-0.18-1.56-0.29c-1.34-0.23-2.15-0.36-2.93-0.39c-1.14-0.04-1.76,0.19-2.26,0.38c-0.4,0.15-0.72,0.27-1.39,0.28
		c-0.73,0.02-1.08-0.12-1.55-0.29c-0.51-0.19-1.15-0.42-2.24-0.39c-0.37,0.01-0.7,0.05-1,0.12c0.08-1.22,0.26-2.06,0.45-2.62
		c0.21,0.15,0.47,0.23,0.74,0.23h3.36c0.68,0,1.24-0.53,1.29-1.2h7.92c0.72,0,1.3-0.58,1.3-1.3V4.21C29,3.49,28.42,2.91,27.7,2.91z
		 M13.83,9.61c-0.62,0.27-2.05,1.06-3.29,3.09c-0.09,0.14-0.13,0.31-0.13,0.48c0,0.51,0.41,0.92,0.92,0.92
		c0.32,0,0.62-0.17,0.79-0.44c0.59-0.97,1.22-1.57,1.71-1.93v4.67c-0.78,0.66-1.65,2.2-1.77,5.79c-0.13,0.02-0.27,0.02-0.43,0.03
		c-0.7-0.01-1.12-0.17-1.6-0.36c-0.5-0.2-1.06-0.41-1.85-0.41c-0.18,0-0.38,0.01-0.59,0.04c-0.56,0.07-0.94,0.21-1.25,0.34
		c0.3-8.21,2.56-12.07,4.42-13.86c1.13-1.09,2.23-1.58,3.07-1.8C13.83,6.17,13.83,9.61,13.83,9.61z M17.62,17.02h-1.63V3.88h1.63
		V17.02z M26.84,15.82h-7.05v-2.87h1.3l0.39-0.01l-0.02-1.82h-1.68V8.75h2.06l0.39-0.02l-0.01-1.82h-2.44V5.08h7.05v10.74H26.84z"/>
	<path class="st0" d="M27.41,26.36c-0.58-0.03-1.16-0.1-1.74-0.21c-0.48-0.09-0.95-0.22-1.4-0.4c-0.3-0.11-0.64-0.24-1.12-0.31
		c-1.17-0.16-1.87,0.2-2.48,0.51c-0.46,0.24-0.85,0.44-1.55,0.48c-0.63,0.03-0.9-0.1-1.29-0.29c-0.47-0.23-1.12-0.55-2.29-0.56
		c-1.06-0.02-1.75,0.23-2.31,0.43c-0.53,0.19-0.94,0.34-1.73,0.26c-0.5-0.05-0.74-0.15-1.07-0.29c-0.38-0.16-0.81-0.33-1.61-0.32
		c-0.94,0.01-1.56,0.26-2.06,0.46c-0.4,0.16-0.72,0.29-1.22,0.32c-0.77,0.05-1.58-0.17-2.47-0.68c-0.45-0.24-1.01-0.06-1.24,0.39
		c-0.24,0.45-0.06,1.01,0.38,1.24c1.05,0.6,2.11,0.9,3.13,0.9c0.11,0,0.22,0,0.33-0.01C6.45,28.23,7,28,7.45,27.82
		c0.44-0.18,0.79-0.31,1.39-0.32c0.4-0.02,0.58,0.06,0.92,0.2c0.33,0.14,0.78,0.33,1.56,0.4c1.19,0.12,1.9-0.14,2.53-0.36
		c0.45-0.16,0.93-0.32,1.67-0.32c0.76,0.01,1.1,0.18,1.51,0.38c0.49,0.24,1.09,0.54,2.19,0.47c1.08-0.06,1.77-0.42,2.28-0.68
		c0.49-0.25,0.8-0.41,1.39-0.33c0.27,0.04,0.46,0.11,0.72,0.21c0.55,0.21,1.12,0.38,1.7,0.48c0.66,0.13,1.33,0.21,2.01,0.24
		c0.5,0.01,0.92-0.37,0.96-0.88c0.01-0.25-0.07-0.48-0.24-0.66C27.88,26.48,27.65,26.38,27.41,26.36z"/>
</g>
</svg>
