<?xml version="1.0" encoding="utf-8"?>
<!-- Generator: Adobe Illustrator 27.0.0, SVG Export Plug-In . SVG Version: 6.00 Build 0)  -->
<svg version="1.1" id="图层_1" xmlns="http://www.w3.org/2000/svg" xmlns:xlink="http://www.w3.org/1999/xlink" x="0px" y="0px"
	 viewBox="0 0 30 30" style="enable-background:new 0 0 30 30;" xml:space="preserve">
<style type="text/css">
	.st0{fill:#FFFFFF;}
</style>
<g>
	<path class="st0" d="M28.99,16.14c0-0.02,0.01-0.04,0.01-0.07V5.03c0-1.16-0.94-2.1-2.1-2.1H15.72c-1.16,0-2.1,0.94-2.1,2.1v1.44
		H9.31c-1.19,0-2.34,0.47-3.18,1.32l-3.8,3.8C1.47,12.43,1,13.57,1,14.76v6.11c0,1.85,1.5,3.35,3.35,3.35h1.94
		c0.47,1.64,1.97,2.85,3.76,2.85s3.29-1.21,3.76-2.85h4.04c0.47,1.64,1.97,2.85,3.76,2.85s3.29-1.21,3.76-2.85h0.26
		c1.85,0,3.35-1.5,3.35-3.35V16.2C29,16.18,28.99,16.16,28.99,16.14z M15.72,5.03H26.9v9.99H15.72V5.03z M10.06,24.97
		c-0.95,0-1.71-0.72-1.81-1.63c0.01-0.06,0.03-0.11,0.03-0.17c0-1.01,0.82-1.82,1.83-1.82c0.24,0,0.47,0.05,0.68,0.13
		c0.64,0.28,1.09,0.92,1.09,1.67C11.88,24.16,11.06,24.97,10.06,24.97z M21.62,24.97c-1.01,0-1.83-0.82-1.83-1.82
		c0-0.12,0.01-0.25,0.04-0.36c0.18-0.82,0.91-1.44,1.78-1.43c1.01,0,1.83,0.82,1.83,1.82v0.01C23.43,24.17,22.62,24.97,21.62,24.97z
		 M26.9,20.87c0,0.69-0.56,1.25-1.25,1.24H25.4c-0.01-0.04-0.03-0.07-0.04-0.1c-0.49-1.61-1.97-2.79-3.74-2.79
		c-0.66,0-1.28,0.18-1.82,0.47c-0.02,0.01-0.04,0.02-0.06,0.04c-0.17,0.09-0.32,0.19-0.47,0.3c-0.03,0.02-0.05,0.05-0.08,0.07
		c-0.14,0.11-0.28,0.23-0.41,0.36l0,0c-0.22,0.23-0.39,0.48-0.55,0.76c-0.06,0.11-0.13,0.22-0.18,0.33
		c-0.04,0.08-0.07,0.17-0.1,0.26c-0.04,0.1-0.08,0.2-0.11,0.3H13.9c-0.26-0.93-0.85-1.7-1.64-2.22c0,0-0.01,0-0.01-0.01
		c-0.18-0.11-0.36-0.21-0.55-0.3c-0.06-0.03-0.13-0.06-0.19-0.09c-0.11-0.04-0.23-0.08-0.35-0.11c-0.35-0.1-0.71-0.17-1.09-0.17
		c-1.81,0-3.32,1.23-3.77,2.89H4.35c-0.69,0-1.25-0.56-1.25-1.24v-6.11c0-0.64,0.25-1.24,0.7-1.69l3.8-3.8
		c0.45-0.45,1.06-0.7,1.7-0.7h4.28v6.48c0,1.22,0.99,2.2,2.2,2.2H26.9V20.87z"/>
	<path class="st0" d="M8.66,11.22l-2.34,2.33c-0.41,0.41-0.41,1.08,0,1.49s1.08,0.41,1.49,0l2.34-2.33l0,0
		c0.41-0.41,0.41-1.08,0-1.49C9.73,10.81,9.07,10.81,8.66,11.22z"/>
</g>
</svg>
