<?xml version="1.0" encoding="utf-8"?>
<!-- Generator: Adobe Illustrator 27.0.0, SVG Export Plug-In . SVG Version: 6.00 Build 0)  -->
<svg version="1.1" id="图层_1" xmlns="http://www.w3.org/2000/svg" xmlns:xlink="http://www.w3.org/1999/xlink" x="0px" y="0px"
	 viewBox="0 0 30 30" style="enable-background:new 0 0 30 30;" xml:space="preserve">
<style type="text/css">
	.st0{fill:#FFFFFF;}
</style>
<g>
	<rect x="21.1" y="21.52" class="st0" width="3.43" height="2.64"/>
	<rect x="21.1" y="17.04" class="st0" width="3.43" height="2.64"/>
	<polygon class="st0" points="11.42,6.22 8.79,6.22 8.79,8.83 6.18,8.83 6.18,11.47 8.79,11.47 8.79,14.08 11.42,14.08 11.42,11.47 
		14.03,11.47 14.03,8.83 11.42,8.83 	"/>
	<path class="st0" d="M19.3,12.56V1H1v28h28V12.56H19.3z M19.3,26.36V15.2h7.06v11.17L19.3,26.36L19.3,26.36z M11.44,22.29v4.08
		H8.86v-4.08H11.44z M6.22,19.65v6.71H3.64V3.64h13.03v22.73h-2.59v-6.71H6.22V19.65z"/>
</g>
</svg>
