<?xml version="1.0" encoding="utf-8"?>
<!-- Generator: Adobe Illustrator 27.0.0, SVG Export Plug-In . SVG Version: 6.00 Build 0)  -->
<svg version="1.1" id="图层_1" xmlns="http://www.w3.org/2000/svg" xmlns:xlink="http://www.w3.org/1999/xlink" x="0px" y="0px"
	 viewBox="0 0 30 30" style="enable-background:new 0 0 30 30;" xml:space="preserve">
<style type="text/css">
	.st0{fill:#FFFFFF;}
</style>
<g>
	<path class="st0" d="M28.95,12.9c0-0.82-0.31-1.6-0.87-2.19c-0.56-0.59-1.34-0.93-2.17-0.93L14.96,9.83V4.28
		c0-1.64-1.33-2.97-2.97-2.98H3.98C2.34,1.31,1,2.64,1,4.28v19.88c0,1.64,1.34,2.98,2.98,2.98h7.6h0.19v-0.02
		c0.56-0.09,0.98-0.58,0.98-1.16c0-0.31-0.12-0.61-0.34-0.83s-0.52-0.34-0.83-0.34h-7.6c-0.34,0-0.62-0.28-0.63-0.63V4.28
		c0-0.34,0.28-0.62,0.63-0.63h8c0.34,0,0.63,0.28,0.63,0.63v6.73c0,0.65,0.53,1.18,1.18,1.18c0.04,0,0.08-0.01,0.08-0.02
		c0.02,0.01,0.06,0.02,0.11,0.02l11.94-0.06c0.17,0,0.34,0.07,0.46,0.2c0.15,0.16,0.23,0.36,0.23,0.58l0.05,7.92
		c0,0.64,0.53,1.17,1.2,1.17c0.65-0.01,1.17-0.54,1.17-1.18L28.95,12.9z"/>
	<path class="st0" d="M21.14,15.25c-0.19-0.33-0.46-0.6-0.79-0.79c-0.5-0.29-1.08-0.36-1.64-0.22c-0.56,0.15-1.02,0.51-1.31,1.01
		l-3.85,6.67c-0.19,0.33-0.29,0.71-0.29,1.09c0,0.58,0.23,1.12,0.64,1.52c0.41,0.4,0.95,0.63,1.52,0.63h0.01h2.67v2.36
		c0,0.31,0.12,0.61,0.34,0.83s0.52,0.34,0.83,0.34l0,0c0.65,0,1.17-0.53,1.18-1.18v-2.35h2.67c0.38,0,0.76-0.1,1.09-0.29
		c1.03-0.6,1.38-1.92,0.78-2.95L21.14,15.25z M15.75,22.81l3.52-6.09l3.51,6.09H15.75z"/>
	<path class="st0" d="M9.1,8.33H5.8c-0.31,0-0.61,0.12-0.83,0.34C4.75,8.9,4.63,9.19,4.63,9.51c0,0.31,0.12,0.61,0.34,0.83
		c0.22,0.22,0.52,0.34,0.83,0.34l0,0h3.3c0.65,0,1.17-0.53,1.17-1.18C10.28,8.86,9.75,8.33,9.1,8.33z"/>
	<path class="st0" d="M9.11,12.6H5.8c-0.31,0-0.61,0.12-0.83,0.34s-0.34,0.52-0.34,0.83s0.12,0.61,0.34,0.83
		c0.22,0.22,0.52,0.34,0.83,0.34l0,0h3.3c0.31,0,0.61-0.12,0.83-0.35c0.22-0.22,0.34-0.52,0.34-0.83
		C10.28,13.13,9.75,12.6,9.11,12.6z"/>
</g>
</svg>
