<?xml version="1.0" encoding="utf-8"?>
<!-- Generator: Adobe Illustrator 27.0.0, SVG Export Plug-In . SVG Version: 6.00 Build 0)  -->
<svg version="1.1" id="图层_1" xmlns="http://www.w3.org/2000/svg" xmlns:xlink="http://www.w3.org/1999/xlink" x="0px" y="0px"
	 viewBox="0 0 30 30" style="enable-background:new 0 0 30 30;" xml:space="preserve">
<style type="text/css">
	.st0{fill:#FFFFFF;}
</style>
<g>
	<path class="st0" d="M22.69,12.3c0.08-0.58-0.32-1.12-0.9-1.2l-4.04-0.59l-1.81-3.66c-0.1-0.21-0.27-0.38-0.48-0.48
		c-0.25-0.13-0.54-0.14-0.81-0.05c-0.27,0.09-0.49,0.28-0.61,0.54l-1.81,3.66L8.2,11.1c-0.23,0.03-0.45,0.14-0.61,0.31
		c-0.41,0.42-0.4,1.09,0.02,1.5l2.92,2.85l-0.69,4.02c-0.01,0.06-0.01,0.12-0.01,0.18c0,0.28,0.11,0.55,0.31,0.75
		c0.2,0.2,0.47,0.31,0.75,0.31c0.17,0,0.34-0.04,0.49-0.12L15,19l3.61,1.9c0.21,0.11,0.44,0.15,0.67,0.11
		c0.58-0.1,0.97-0.65,0.87-1.23l-0.69-4.02l2.92-2.85C22.55,12.74,22.66,12.53,22.69,12.3z M17.58,14.62L17.58,14.62
		c-0.25,0.24-0.36,0.6-0.31,0.94l0.42,2.45l-2.2-1.16c-0.31-0.16-0.68-0.16-0.99,0l-2.2,1.16l0.42-2.45
		c0.06-0.34-0.05-0.7-0.31-0.94l-1.78-1.74l2.46-0.36c0.35-0.05,0.65-0.27,0.8-0.58L15,9.72l1.1,2.23c0.15,0.31,0.45,0.53,0.8,0.58
		l2.46,0.36L17.58,14.62z"/>
	<path class="st0" d="M27.17,17.03c0.31-1.11,0.47-2.25,0.47-3.39C27.64,6.67,21.97,1,15,1S2.36,6.67,2.36,13.64
		c0,1.14,0.16,2.28,0.47,3.39C1.65,18.35,1,20.04,1,21.81C1,25.77,4.23,29,8.19,29c2.24,0,4.29-1.01,5.66-2.78
		c0.8,0.07,1.51,0.07,2.3,0c1.37,1.77,3.42,2.78,5.66,2.78c3.96,0,7.19-3.23,7.19-7.19C29,20.04,28.35,18.35,27.17,17.03z
		 M8.19,26.88L8.19,26.88c-2.79,0-5.07-2.27-5.07-5.07c0-0.85,0.22-1.68,0.63-2.43c1.57,3.05,4.35,5.37,7.63,6.35
		C10.48,26.47,9.37,26.91,8.19,26.88z M15,24.15c-5.8,0-10.51-4.72-10.51-10.51S9.2,3.12,15,3.12s10.51,4.72,10.51,10.51
		S20.8,24.15,15,24.15z M21.81,26.88L21.81,26.88c-0.01,0-0.01,0-0.02,0c-1.15,0-2.28-0.41-3.17-1.14c3.28-0.99,6.06-3.3,7.63-6.35
		c0.41,0.75,0.63,1.57,0.63,2.43C26.87,24.6,24.6,26.88,21.81,26.88z"/>
</g>
</svg>
